<svg width="512" height="512" xmlns="http://www.w3.org/2000/svg">

 <g>
  <title>background</title>
  <rect fill="none" id="canvas_background" height="402" width="582" y="-1" x="-1"/>
 </g>
 <g>
  <title>Layer 1</title>
  <path fill="#c6abd4" clip-rule="evenodd" fill-rule="evenodd" id="svg_2" d="m286.5,262.8c0,-19 -15.4,-34.4 -34.4,-34.4l-139.2,0l0,68.8l139.2,0c19,0 34.4,-15.5 34.4,-34.4z" class="st0"/>
  <path fill="#c6abd4" clip-rule="evenodd" fill-rule="evenodd" id="svg_3" d="m131.4,18.1l249.2,0c3.4,0 6.1,-2.7 6.1,-6.1l0,0c0,-3.4 -2.7,-6.1 -6.1,-6.1l-249.2,0c-3.4,0 -6.1,2.7 -6.1,6.1l0,0c0,3.4 2.7,6.1 6.1,6.1z" class="st0"/>
  <path fill="#c6abd4" clip-rule="evenodd" fill-rule="evenodd" id="svg_4" d="m323.8,491.7c13.6,-10.6 22.3,-26.8 22.3,-45l0,-379.8c0,-17.1 -7.7,-32.5 -20,-43.1l-193.2,0c-12.3,10.6 -20,26 -20,43.1l0,149.3l139.2,0c25.7,0 46.5,20.9 46.5,46.5s-20.9,46.5 -46.5,46.5l-139.2,0l0,137.4c0,20 10.5,37.6 26.5,48c1.1,-1.8 3,-3 5.2,-3l179.2,0l0,0.1z" class="st0"/>
  <path fill="#c6abd4" clip-rule="evenodd" fill-rule="evenodd" id="svg_5" d="m172.9,506l166.2,0c10.2,0 19.8,-3 28.2,-8.2l-222.6,0c8.4,5.2 18,8.2 28.2,8.2z" class="st0"/>
  <path fill="#c6abd4" clip-rule="evenodd" fill-rule="evenodd" id="svg_6" d="m335.4,491.7l11.5,0c13.6,-10.6 22.3,-26.8 22.3,-45l0,-379.8c0,-17.1 -7.7,-32.5 -20,-43.1l-11.6,0c12.3,10.6 20,26 20,43.1l0,379.8c0,18.2 -8.7,34.4 -22.2,45z" class="st0"/>
  <path fill="#c6abd4" clip-rule="evenodd" fill-rule="evenodd" id="svg_7" d="m379.1,23.9l-23.4,0c12.3,10.6 20,26 20,43.1l0,379.8c0,18.2 -8.7,34.4 -22.3,45l13.9,0c2.2,0 4.2,1.2 5.2,3c16,-10.4 26.5,-28 26.5,-48l0,-379.9c0.1,-17.1 -7.6,-32.4 -19.9,-43z" class="st0"/>
 </g>
</svg>