<svg width="512" height="512" xmlns="http://www.w3.org/2000/svg">

 <g>
  <title>background</title>
  <rect fill="none" id="canvas_background" height="402" width="582" y="-1" x="-1"/>
 </g>
 <g>
  <title>Layer 1</title>
  <path fill="#95c1e6" clip-rule="evenodd" fill-rule="evenodd" id="svg_1" d="m400,104.3l0,-10.5l-191.9,0l-19.5,-63.9c-4.3,-14.3 -17.3,-23.9 -32.2,-23.9l-61,0l0,9.2l61,0c10.8,0 20.2,7 23.4,17.3l18.7,61.2l-29.7,0l0,10.6l-16.6,0l0,18.8l14.2,0c0,0.4 0,0.8 0.1,1.2l42.3,365.2c1,9.3 8.8,16.4 18.2,16.4l56.8,0l1.3,0l56.8,0c9.4,0 17.2,-7.1 18.2,-16.4l42.3,-365.2c0,-0.4 0,-0.8 0.1,-1.2l14.2,0l0,-18.8l-16.7,0zm-53.7,220.5c-10.4,17.4 -34.2,29.5 -61.9,29.5c-27.7,0 -51.5,-12.2 -61.9,-29.5c-14.5,-5.1 -23.4,-12 -23.4,-19.7c0,-7.6 8.9,-14.5 23.4,-19.7c10.4,-17.4 34.2,-29.5 61.9,-29.5c27.7,0 51.5,12.2 61.9,29.5c14.5,5.1 23.4,12 23.4,19.7c-0.1,7.6 -9,14.6 -23.4,19.7z" class="st0"/>
 </g>
</svg>