<svg width="512" height="512" xmlns="http://www.w3.org/2000/svg">

 <g>
  <title>background</title>
  <rect fill="none" id="canvas_background" height="402" width="582" y="-1" x="-1"/>
 </g>
 <g>
  <title>Layer 1</title>
  <path fill="#a5cd6c" id="svg_3" d="m418.8,47.1c-29,-12.2 -65.2,-11 -91.9,9.6l-277.1,218.7c-27.9,21.7 -39.5,56.5 -33,88.9l402,-317.2z"/>
  <path fill="#a5cd6c" id="svg_4" d="m76.2,452.5c31.7,26.2 80.2,30.1 114.1,3.8l277.2,-218.7c35,-27.2 44.5,-75.2 24.4,-113l-415.7,327.9z"/>
  <path fill="#a5cd6c" id="svg_6" d="m23.9,426.3c25.7,-20.3 14.4,-34.7 40.1,-55c25.7,-20.3 37.1,-5.9 62.8,-26.2c25.7,-20.3 14.4,-34.7 40.1,-55c25.7,-20.3 37.1,-5.9 62.8,-26.2c25.7,-20.3 14.4,-34.7 40.1,-55c25.7,-20.3 37.1,-5.9 62.8,-26.2c25.7,-20.3 14.4,-34.7 40.1,-55c25.7,-20.3 37.1,-5.9 62.8,-26.2c25.7,-20.3 14.4,-34.7 40.1,-55c1.9,-1.5 3.7,-2.8 5.4,-3.9c-12.3,-7.2 -28.3,-6.5 -40.2,2.8l-421.2,332.4c-15.5,12.3 -18.2,34.8 -5.9,50.3l2.7,3.4c2.4,-1.4 4.9,-3.1 7.5,-5.2z"/>
  <path fill="#a5cd6c" id="svg_7" d="m488.1,62.3c-25.7,20.3 -14.4,34.7 -40.1,55c-25.7,20.3 -37.1,5.9 -62.8,26.2c-25.7,20.3 -14.4,34.7 -40.1,55c-25.7,20.3 -37.1,5.9 -62.8,26.2c-25.7,20.3 -14.4,34.7 -40.1,55c-25.7,20.3 -37.1,5.9 -62.8,26.2c-25.7,20.3 -14.4,34.7 -40.1,55c-25.7,20.3 -37.1,5.9 -62.8,26.2c-25.7,20.3 -14.4,34.7 -40.1,55c-1.9,1.5 -3.7,2.8 -5.4,3.9c12.3,7.2 28.3,6.5 40.2,-2.8l421.2,-332.3c15.5,-12.3 18.2,-34.8 5.9,-50.3l-2.7,-3.4c-2.4,1.3 -4.9,3 -7.5,5.1z"/>
 </g>
</svg>